REM DIRINDEX 1\2\5,1\2\6,1\3\7,1\3\8,1\4\9,1\4\10
REM DIRNAME folder01,folder02,folder03,folder04,folder05,folder06,folder07,folder08,folder09,folder10
TITLE ""
FILE "Track14.mp3" MP3
  TRACK 01 AUDIO
    TITLE "8:cjc079_0312"
    INDEX 01 00:00:00
  TRACK 02 AUDIO
    TITLE "8:cjc079_0313"
    INDEX 01 00:02:08
  TRACK 03 AUDIO
    TITLE "7:cjc079_0314"
    INDEX 01 00:03:51
  TRACK 04 AUDIO
    TITLE "0:"
    INDEX 01 00:04:54
  TRACK 05 AUDIO
    TITLE "7:cjc079_0315"
    INDEX 01 00:05:22
  TRACK 06 AUDIO
    TITLE "0:"
    INDEX 01 00:06:24
  TRACK 07 AUDIO
    TITLE "7:cjc079_0316"
    INDEX 01 00:07:72
  TRACK 08 AUDIO
    TITLE "0:"
    INDEX 01 00:09:32
  TRACK 09 AUDIO
    TITLE "7:cjc079_0317"
    INDEX 01 00:10:00
  TRACK 10 AUDIO
    TITLE "0:"
    INDEX 01 00:11:33
  TRACK 11 AUDIO
    TITLE "7:cjc079_0318"
    INDEX 01 00:13:04
  TRACK 12 AUDIO
    TITLE "0:"
    INDEX 01 00:14:11
  TRACK 13 AUDIO
    TITLE "7:cjc079_0319"
    INDEX 01 00:14:54
  TRACK 14 AUDIO
    TITLE "0:"
    INDEX 01 00:15:62
  TRACK 15 AUDIO
    TITLE "7:cjc079_0320"
    INDEX 01 00:17:33
  TRACK 16 AUDIO
    TITLE "0:"
    INDEX 01 00:18:70
  TRACK 17 AUDIO
    TITLE "7:cjc079_0321"
    INDEX 01 00:19:44
  TRACK 18 AUDIO
    TITLE "0:"
    INDEX 01 00:21:04
  TRACK 19 AUDIO
    TITLE "8:cjc079_0322"
    INDEX 01 00:22:54
  TRACK 20 AUDIO
    TITLE "7:cjc079_0323"
    INDEX 01 00:24:24
  TRACK 21 AUDIO
    TITLE "0:"
    INDEX 01 00:25:39
  TRACK 22 AUDIO
    TITLE "7:cjc079_0324"
    INDEX 01 00:26:03
  TRACK 23 AUDIO
    TITLE "0:"
    INDEX 01 00:27:18
  TRACK 24 AUDIO
    TITLE "7:cjc079_0325"
    INDEX 01 00:28:59
  TRACK 25 AUDIO
    TITLE "0:"
    INDEX 01 00:30:01
  TRACK 26 AUDIO
    TITLE "7:cjc079_0326"
    INDEX 01 00:30:46
  TRACK 27 AUDIO
    TITLE "0:"
    INDEX 01 00:31:65
  TRACK 28 AUDIO
    TITLE "7:cjc079_0327"
    INDEX 01 00:33:36
  TRACK 29 AUDIO
    TITLE "0:"
    INDEX 01 00:34:49
  TRACK 30 AUDIO
    TITLE "7:cjc079_0328"
    INDEX 01 00:35:25
  TRACK 31 AUDIO
    TITLE "0:"
    INDEX 01 00:36:36
  TRACK 32 AUDIO
    TITLE "7:cjc079_0329"
    INDEX 01 00:38:16
  TRACK 33 AUDIO
    TITLE "0:"
    INDEX 01 00:39:45
  TRACK 34 AUDIO
    TITLE "7:cjc079_0330"
    INDEX 01 00:40:19
  TRACK 35 AUDIO
    TITLE "0:"
    INDEX 01 00:41:47
  TRACK 36 AUDIO
    TITLE "8:cjc079_0331"
    INDEX 01 00:43:21
  TRACK 37 AUDIO
    TITLE "7:cjc079_0332"
    INDEX 01 00:44:69
  TRACK 38 AUDIO
    TITLE "0:"
    INDEX 01 00:46:06
  TRACK 39 AUDIO
    TITLE "7:cjc079_0333"
    INDEX 01 00:46:51
  TRACK 40 AUDIO
    TITLE "0:"
    INDEX 01 00:47:62
  TRACK 41 AUDIO
    TITLE "7:cjc079_0334"
    INDEX 01 00:49:33
  TRACK 42 AUDIO
    TITLE "0:"
    INDEX 01 00:50:60
  TRACK 43 AUDIO
    TITLE "7:cjc079_0335"
    INDEX 01 00:51:28
  TRACK 44 AUDIO
    TITLE "0:"
    INDEX 01 00:52:55
  TRACK 45 AUDIO
    TITLE "7:cjc079_0336"
    INDEX 01 00:54:25
  TRACK 46 AUDIO
    TITLE "0:"
    INDEX 01 00:55:59
  TRACK 47 AUDIO
    TITLE "7:cjc079_0337"
    INDEX 01 00:56:29
  TRACK 48 AUDIO
    TITLE "0:"
    INDEX 01 00:57:64
  TRACK 49 AUDIO
    TITLE "7:cjc079_0338"
    INDEX 01 00:59:38
  TRACK 50 AUDIO
    TITLE "0:"
    INDEX 01 01:00:62
  TRACK 51 AUDIO
    TITLE "7:cjc079_0339"
    INDEX 01 01:01:33
  TRACK 52 AUDIO
    TITLE "0:"
    INDEX 01 01:02:57
  TRACK 53 AUDIO
    TITLE "8:cjc079_0340"
    INDEX 01 01:04:31
  TRACK 54 AUDIO
    TITLE "7:cjc079_0341"
    INDEX 01 01:06:04
  TRACK 55 AUDIO
    TITLE "0:"
    INDEX 01 01:07:15
  TRACK 56 AUDIO
    TITLE "7:cjc079_0342"
    INDEX 01 01:07:63
  TRACK 57 AUDIO
    TITLE "0:"
    INDEX 01 01:08:72
  TRACK 58 AUDIO
    TITLE "7:cjc079_0343"
    INDEX 01 01:10:45
  TRACK 59 AUDIO
    TITLE "0:"
    INDEX 01 01:12:03
  TRACK 60 AUDIO
    TITLE "7:cjc079_0344"
    INDEX 01 01:12:50
  TRACK 61 AUDIO
    TITLE "0:"
    INDEX 01 01:14:10
  TRACK 62 AUDIO
    TITLE "7:cjc079_0345"
    INDEX 01 01:15:54
  TRACK 63 AUDIO
    TITLE "0:"
    INDEX 01 01:17:00
  TRACK 64 AUDIO
    TITLE "7:cjc079_0346"
    INDEX 01 01:17:43
  TRACK 65 AUDIO
    TITLE "0:"
    INDEX 01 01:18:64
  TRACK 66 AUDIO
    TITLE "7:cjc079_0347"
    INDEX 01 01:20:36
  TRACK 67 AUDIO
    TITLE "0:"
    INDEX 01 01:21:57
  TRACK 68 AUDIO
    TITLE "7:cjc079_0348"
    INDEX 01 01:22:25
  TRACK 69 AUDIO
    TITLE "0:"
    INDEX 01 01:23:44
  TRACK 70 AUDIO
    TITLE "8:cjc079_0349"
    INDEX 01 01:25:17
  TRACK 71 AUDIO
    TITLE "7:cjc079_0350"
    INDEX 01 01:26:62
  TRACK 72 AUDIO
    TITLE "0:"
    INDEX 01 01:28:00
  TRACK 73 AUDIO
    TITLE "7:cjc079_0351"
    INDEX 01 01:28:45
  TRACK 74 AUDIO
    TITLE "0:"
    INDEX 01 01:29:60
  TRACK 75 AUDIO
    TITLE "7:cjc079_0352"
    INDEX 01 01:31:30
  TRACK 76 AUDIO
    TITLE "0:"
    INDEX 01 01:32:53
  TRACK 77 AUDIO
    TITLE "7:cjc079_0353"
    INDEX 01 01:33:29
  TRACK 78 AUDIO
    TITLE "0:"
    INDEX 01 01:34:54
  TRACK 79 AUDIO
    TITLE "7:cjc079_0354"
    INDEX 01 01:36:25
  TRACK 80 AUDIO
    TITLE "0:"
    INDEX 01 01:37:36
  TRACK 81 AUDIO
    TITLE "7:cjc079_0355"
    INDEX 01 01:38:04
  TRACK 82 AUDIO
    TITLE "0:"
    INDEX 01 01:39:15
  TRACK 83 AUDIO
    TITLE "7:cjc079_0356"
    INDEX 01 01:40:62
  TRACK 84 AUDIO
    TITLE "0:"
    INDEX 01 01:42:10
  TRACK 85 AUDIO
    TITLE "7:cjc079_0357"
    INDEX 01 01:42:53
  TRACK 86 AUDIO
    TITLE "0:"
    INDEX 01 01:44:01
